<svg xmlns="http://www.w3.org/2000/svg" viewBox="0 0 235.59 60.18" role="img" aria-labelledby="blanko-logo-title">
    <title id="blanko-logo-title">Blanko</title>
    <path d="M11.861,50.063h17.607c6.048,0,9.55-3.305,9.55-9.1c0-5.639-3.502-8.854-9.55-8.854H11.861V50.063z M11.861,24.863h16.246c4.783,0,8.354-2.813,8.354-7.977c0-5.785-2.934-7.887-8.354-7.887H11.861V24.863z M1.92,0.789h27.628c10.197,0,16.879,4.666,16.879,14.254c0,5.785-2.938,9.979-8.13,12.234v0.156c6.935,1.538,10.68,7.004,10.68,14.822c0,9.007-6.212,16.018-20.953,16.018H1.92V0.789z"/>
    <rect x="54.304" y="0.789" width="9.086" height="57.483"/>
    <path d="M96.532,37.412c-2.792,1.857-7.17,1.777-11.15,2.501c-3.903,0.651-7.409,2.088-7.409,6.924c0,4.108,5.183,5.319,8.369,5.319c3.966,0,10.19-2.095,10.19-7.893V37.412z M105.58,49.438c0,1.971,0.166,3.891,0.381,5.681c0.149,1.272,0.37,2.312,0.666,3.166h-9.031c-0.128-0.475-0.242-0.948-0.335-1.44c-0.129-0.669-0.212-1.354-0.271-2.04l-0.028-0.51c-3.581,3.533-9.113,5.096-13.973,5.096c-7.402,0-14.092-4.015-14.092-12.151c0-10.381,8.21-12.075,15.854-12.961c6.529-1.195,12.335-0.485,12.335-5.872c0-4.742-4.856-5.642-8.514-5.642c-5.093,0-8.685,2.099-9.08,6.602h-9.082c0.634-10.707,9.641-13.842,18.719-13.842c8.04,0,16.479,3.294,16.479,12.075v21.424L105.58,49.438z"/>
    <path d="M113.387,16.65h8.591v6.124l0.167,0.149c2.698-4.586,7.405-7.399,12.813-7.399c8.923,0,14.572,4.829,14.572,14.161v28.584h-9.082v-26.16c-0.149-6.522-2.695-9.335-8.04-9.335c-6.048,0-9.948,4.829-9.948,10.942v24.552h-9.072V16.65z"/>
    <polygon points="156.738,0.789 165.82,0.789 165.82,33.481 182.229,16.643 193.372,16.643 177.607,31.939 194.888,58.272 183.815,58.272 171.241,38.063 165.82,43.38 165.82,58.272 156.738,58.272"/>
    <path d="M224.587,37.412c0-7.163-3.568-14.642-11.696-14.642c-8.126,0-11.708,7.479-11.708,14.642c0,7.251,3.582,14.745,11.708,14.745C221.019,52.157,224.587,44.663,224.587,37.412 M192.1,37.412c0-12.708,7.572-21.888,20.791-21.888c13.221,0,20.779,9.18,20.779,21.888c0,12.813-7.559,21.979-20.779,21.979C199.672,59.391,192.1,50.226,192.1,37.412"/>
</svg>
